<svg enable-background="new 0 0 16 16" viewBox="0 0 16 16" xmlns="http://www.w3.org/2000/svg">
    <g id="line" display="none">
        <path d="m8.5.5h5l-6 7.5 6 7.5h-5.5l-5.5-7.5 4.8-6.5"
            style="display:inline;fill:none;stroke:#000;stroke-linecap:round;stroke-linejoin:round;stroke-miterlimit:10"></path>
    </g>
    <g id="line_expanded" display="none">
        <g display="inline">
            <path
                d="m13.5 16h-5.5c-.2 0-.3-.1-.4-.2l-5.5-7.5c-.1-.2-.1-.4 0-.6l4.8-6.5c.1-.2.4-.3.7-.1.2.2.3.5.1.7l-4.6 6.2 5.1 7h4.2l-5.3-6.7c-.1-.2-.1-.4 0-.6l5.4-6.7h-4c-.3 0-.5-.2-.5-.5s.2-.5.5-.5h5c.2 0 .4.1.5.3 0 .2 0 .4-.1.5l-5.8 7.2 5.8 7.2c.1.2.1.4.1.5-.1.2-.3.3-.5.3z"></path>
        </g>
    </g>
    <g id="filled_line">
        <g>
            <path d="m13.5.5h-5.5l-4.6 6.2 6.5 8.8h3.6l-6-7.5z" fill="#dc47009e"></path> <!--
            Измененный цвет -->
            <g>
                <path
                    d="m14 .5c0 .1 0 .2-.1.3l-5.8 7.2 5.8 7.2c.1.1.1.4.1.5-.1.2-.3.3-.5.3h-5.5c-.2 0-.3-.1-.4-.2l-5.5-7.5c-.1-.2-.1-.4 0-.6l4.8-6.5c.1-.2.4-.3.7-.1.2.2.3.5.1.7l-4.6 6.2 5.1 7h4.2l-5.3-6.7c-.1-.2-.1-.4 0-.6l5.4-6.7h-4c-.3 0-.5-.2-.5-.5s.2-.5.5-.5h5c.2 0 .4.1.5.3z"
                    fill="#3e3643"></path>
            </g>
        </g>
    </g>
</svg>