<!-- icon666.com - MILLIONS OF FREE VECTOR ICONS --><svg viewBox="0 0 24 24" xmlns="http://www.w3.org/2000/svg"><g id="Layer_4" data-name="Layer 4"><circle cx="13" cy="13" fill="#ffdf47" r="7" style="fill: rgb(220, 71, 0);"></circle></g><g id="Layer_2" data-name="Layer 2"><path d="m20 1a3.0034 3.0034 0 0 1 3 3v16a3.0034 3.0034 0 0 1 -3 3h-16a3.0034 3.0034 0 0 1 -3-3v-16a3.0034 3.0034 0 0 1 3-3zm0-1h-16a4 4 0 0 0 -4 4v16a4 4 0 0 0 4 4h16a4 4 0 0 0 4-4v-16a4 4 0 0 0 -4-4z" fill="#000000" style="fill: rgb(255, 255, 255);"></path></g><g id="Layer_3" data-name="Layer 3"><path d="m12 11.0835a3 3 0 1 1 3-3 3.0033 3.0033 0 0 1 -3 3zm0-5a2 2 0 1 0 2 2 2.002 2.002 0 0 0 -2-2z" fill="#000000" style="fill: rgb(255, 255, 255);"></path><path d="m17 18.9165h-2.5a.5.5 0 0 1 0-1h2v-.333a4.5 4.5 0 0 0 -9 0v.833a.5.5 0 0 1 -1 0v-.833a5.5 5.5 0 0 1 11 0v.833a.5.5 0 0 1 -.5.5z" fill="#000000" style="fill: rgb(255, 255, 255);"></path><path d="m12.8335 18.9165h-4.167a.5.5 0 0 1 0-1h4.167a.5.5 0 0 1 0 1z" fill="#000000" style="fill: rgb(255, 255, 255);"></path></g></svg>